<?xml version="1.0" encoding="UTF-8"?>
<svg width="170px" height="37px" viewBox="0 0 170 37" version="1.1" xmlns="http://www.w3.org/2000/svg" xmlns:xlink="http://www.w3.org/1999/xlink">
    <!-- Generator: Sketch 62 (91390) - https://sketch.com -->
    <title>Group 44</title>
    <desc>Created with Sketch.</desc>
    <defs>
        <polygon id="path-1" points="0.80785 0.79287 37.1718 0.79287 37.1718 20.02505 0.80785 20.02505"></polygon>
    </defs>
    <g id="02.HOME" stroke="none" stroke-width="1" fill="none" fill-rule="evenodd">
        <g id="Group-44">
            <g id="Group-3" transform="translate(132.680000, 0.027414)">
                <mask id="mask-2" fill="white">
                    <use xlink:href="#path-1"></use>
                </mask>
                <g id="Clip-2"></g>
                <path d="M13.15993,10.73745 L20.62853,10.73745 L16.85999,4.80751 L13.15993,10.73745 M0.80785,20.02505 L0.80785,17.44421 L3.40581,17.14675 C4.31103,17.03761 4.69837,16.21585 4.80537,16.02325 L11.30883,5.44737 C11.83955,4.61919 11.32595,3.88089 10.63901,3.80385 L7.21715,3.40795 L7.21715,0.79287 L22.02809,0.79287 C22.85199,0.79287 23.38271,1.36639 23.72939,1.85859 L32.37713,15.07523 C33.05979,16.13881 33.58195,16.96699 34.44865,17.08041 L37.17287,17.38215 L37.17287,20.02505 L20.52581,20.02505 L20.52581,17.41853 L22.64013,17.15959 C23.65449,17.04403 24.48267,16.58179 23.65449,15.34701 L22.85199,14.13791 L11.04347,14.13791 L10.13611,15.60809 C9.57115,16.50689 10.13611,17.04403 11.00281,17.15959 L13.11713,17.41853 L13.11713,20.02505 L0.80785,20.02505" id="Fill-1" fill="#EC1B2E" mask="url(#mask-2)"></path>
            </g>
            <path d="M119.511938,16.359252 L114.604918,16.359252 L114.604918,4.497232 L119.511938,4.497232 C124.194258,4.497232 126.163058,5.586492 126.163058,10.420752 C126.163058,15.293532 124.194258,16.359252 119.511938,16.359252 M122.450158,0.818572 L103.408438,0.818572 L103.408438,3.435792 L105.803098,3.675472 C106.684778,3.808152 107.046438,4.454432 107.046438,5.325412 L107.046438,15.678732 C107.046438,16.393492 106.746838,17.071872 105.957178,17.187432 L103.399878,17.514852 L103.399878,20.040052 L122.450158,20.052892 C131.222018,20.052892 134.990558,15.790012 134.990558,10.159672 C134.990558,5.100712 131.222018,0.818572 122.450158,0.818572" id="Fill-4" fill="#EC1B2E"></path>
            <path d="M0,20.052036 L15.408,20.052036 L15.408,17.486176 L12.77152,17.186576 C12.17018,17.107396 11.56242,16.728616 11.56242,15.446756 L11.56242,12.348036 L23.4223,12.348036 L23.4223,15.292676 C23.4223,16.167936 23.27678,16.993976 22.24744,17.107396 L19.56816,17.411276 L19.56816,20.052036 L34.97616,20.052036 L34.97616,17.411276 L32.25622,17.107396 C31.72978,17.032496 31.12416,16.610916 31.12416,15.523796 L31.12416,5.515016 C31.12416,4.496376 31.49438,3.807296 32.2926,3.738816 L34.97616,3.434936 L34.97616,0.819856 L19.56816,0.819856 L19.56816,3.400696 L22.24744,3.738816 C23.1548,3.854376 23.4223,4.569136 23.4223,5.515016 L23.4223,8.502456 L11.56242,8.502456 L11.56242,5.474356 C11.56242,4.338016 12.0161,3.807296 12.80576,3.738816 L15.408,3.434936 L15.408,0.819856 L0.03638,0.819856 L0.03638,3.434936 L2.60866,3.738816 C3.62944,3.854376 3.89266,4.607656 3.85628,5.585636 L3.85628,15.335476 C3.85628,16.424736 3.55454,17.071016 2.57228,17.186576 L0,17.486176 L0,20.052036" id="Fill-6" fill="#EC1B2E"></path>
            <path d="M51.441534,3.776266 C47.065234,3.776266 44.574274,5.404806 44.574274,10.384586 C44.574274,15.445686 47.065234,17.072086 51.441534,17.072086 C55.822114,17.072086 58.319494,15.445686 58.319494,10.384586 C58.319494,5.404806 55.822114,3.776266 51.441534,3.776266 M35.733934,10.339646 C35.733934,4.304846 40.606714,0.071926 51.480054,0.071926 C62.284914,0.071926 67.164114,4.304846 67.164114,10.339646 C67.164114,16.534946 62.284914,20.729346 51.480054,20.729346 C40.606714,20.729346 35.733934,16.534946 35.733934,10.339646" id="Fill-8" fill="#EC1B2E"></path>
            <path d="M68.016048,20.052036 L80.327468,20.052036 L80.327468,17.486176 L77.682428,17.186576 C76.931288,17.107396 76.473328,16.471816 76.473328,15.598696 L76.473328,5.816756 L86.711088,19.298756 C87.053488,19.746016 87.691208,20.052036 88.301108,20.052036 L97.961068,20.052036 L97.961068,5.474356 C97.961068,4.787416 98.138688,3.856516 99.129508,3.738816 L101.815208,3.434936 L101.815208,0.819856 L89.503788,0.819856 L89.503788,3.400696 L92.191628,3.738816 C93.133228,3.854376 93.360068,4.646176 93.360068,5.547116 L93.360068,15.070116 L83.197208,1.660876 C82.820568,1.172956 82.330508,0.819856 81.613608,0.819856 L68.016048,0.819856 L68.016048,3.434936 L70.584048,3.738816 C71.487128,3.873636 71.827388,4.331596 71.827388,5.585636 L71.827388,15.335476 C71.827388,16.488936 71.514948,17.041056 70.545528,17.186576 L68.016048,17.486176 L68.016048,20.052036" id="Fill-10" fill="#EC1B2E"></path>
        </g>
    </g>
</svg>